<svg xmlns:xlink="http://www.w3.org/1999/xlink" xmlns="http://www.w3.org/2000/svg" class="MuiSvgIcon-root-3115 jss2993" focusable="false" viewBox="0 0 24 24" aria-hidden="true" width="24" height="24" fill="#05112A" name="ListBulleted">
<path fill-rule="evenodd" clip-rule="evenodd" d="M4 13.9625C4.55228 13.9625 5 14.4102 5 14.9625C5 15.5148 4.55228 15.9625 4 15.9625C3.44772 15.9625 3 15.5148 3 14.9625C3 14.4102 3.44772 13.9625 4 13.9625ZM20.1 13.9625C20.597 13.9625 21 14.4102 21 14.9625C21 15.5148 20.597 15.9625 20.1 15.9625H7.49998C7.00292 15.9625 6.59998 15.5148 6.59998 14.9625C6.59998 14.4102 7.00292 13.9625 7.49998 13.9625H20.1ZM4 7.7625C4.55228 7.7625 5 8.21021 5 8.7625C5 9.31478 4.55228 9.7625 4 9.7625C3.44772 9.7625 3 9.31478 3 8.7625C3 8.21021 3.44772 7.7625 4 7.7625ZM20.1 7.7625C20.597 7.7625 21 8.21021 21 8.7625C21 9.31478 20.597 9.7625 20.1 9.7625H7.49998C7.00292 9.7625 6.59998 9.31478 6.59998 8.7625C6.59998 8.21021 7.00292 7.7625 7.49998 7.7625H20.1ZM4 1.5625C4.55228 1.5625 5 2.01022 5 2.5625C5 3.11478 4.55228 3.5625 4 3.5625C3.44772 3.5625 3 3.11478 3 2.5625C3 2.01022 3.44772 1.5625 4 1.5625ZM20.1 1.5625C20.597 1.5625 21 2.01022 21 2.5625C21 3.11478 20.597 3.5625 20.1 3.5625H7.49998C7.00292 3.5625 6.59998 3.11478 6.59998 2.5625C6.59998 2.01022 7.00292 1.5625 7.49998 1.5625H20.1ZM4 20.1625C4.55228 20.1625 5 20.6102 5 21.1625C5 21.7148 4.55228 22.1625 4 22.1625C3.44772 22.1625 3 21.7148 3 21.1625C3 20.6102 3.44772 20.1625 4 20.1625ZM20.1 20.1625C20.597 20.1625 21 20.6102 21 21.1625C21 21.7148 20.597 22.1625 20.1 22.1625H7.49998C7.00292 22.1625 6.59998 21.7148 6.59998 21.1625C6.59998 20.6102 7.00292 20.1625 7.49998 20.1625H20.1Z" fill="currentColor">
</path>
</svg>