<svg xmlns:xlink="http://www.w3.org/1999/xlink" xmlns="http://www.w3.org/2000/svg" class="MuiSvgIcon-root-4756 jss4634" focusable="false" viewBox="0 0 24 25" aria-hidden="true" width="24" height="25" fill="none" name="Notes"><path fill-rule="evenodd" clip-rule="evenodd" d="M3.94737 6.125V3.5C3.94737 2.39543 4.79567 1.5 5.84211 1.5H19.1053C20.0526 1.5 21 2.5 21 3.5V5.5V7.5V21.5C21 22.6046 20.1517 23.5 19.1053 23.5L5.84211 23.5C4.79567 23.5 3.94737 22.6046 3.94737 21.5V18.25H3.82895C3.37113 18.25 3 17.8583 3 17.375C3 16.8918 3.37113 16.5 3.82895 16.5H3.94737V14.75H3.82895C3.37113 14.75 3 14.3583 3 13.875C3 13.3918 3.37113 13 3.82895 13H3.94737V11.25H3.82895C3.37113 11.25 3 10.8583 3 10.375C3 9.89176 3.37113 9.5 3.82895 9.5H3.94737V7.875H3.82895C3.37113 7.875 3 7.48325 3 7C3 6.51675 3.37113 6.125 3.82895 6.125H3.94737ZM12.3101 3.25H19.1056C19.1992 3.25 19.3425 3.35181 19.3425 3.5V7.50001V21.5C19.3425 21.6381 19.2364 21.75 19.1056 21.75H10.3421V3.25H12.3101ZM8.68421 3.25H5.84248C5.71168 3.25 5.60564 3.36193 5.60564 3.5L5.6056 6.12499H6.43455C6.89237 6.12499 7.2635 6.51675 7.2635 7C7.2635 7.48325 6.89237 7.87499 6.43455 7.87499H5.6056L5.60564 9.5H6.43458C6.8924 9.5 7.26353 9.89175 7.26353 10.375C7.26353 10.8583 6.8924 11.25 6.43458 11.25H5.60564L5.60564 13H6.43459C6.89241 13 7.26354 13.3918 7.26354 13.875C7.26354 14.3582 6.89241 14.75 6.43459 14.75H5.60564V16.5H6.43459C6.89241 16.5 7.26354 16.8918 7.26354 17.375C7.26354 17.8582 6.89241 18.25 6.43459 18.25H5.60564V21.5C5.60564 21.6381 5.71168 21.75 5.84248 21.75H8.68421V3.25Z" fill="#05112A"></path></svg>